<?xml version="1.0" encoding="UTF-8"?>
<svg id="Layer_1" xmlns="http://www.w3.org/2000/svg" version="1.1" viewBox="0 0 1289.5 247.4">
  <!-- Generator: Adobe Illustrator 29.0.1, SVG Export Plug-In . SVG Version: 2.1.0 Build 192)  -->
  <defs>
    <style>
      .st0 {
        fill: #fff;
      }

      .st1 {
        fill: #4b3fff;
      }
    </style>
  </defs>
  <path class="st1" d="M1279.4,0h-225.1c-10.3,0-13.9,13.6-5,18.7l107.5,62.1v124.2c0,10.3,13.6,13.9,18.7,5l112.6-195c3.9-6.7-1-15.1-8.7-15.1Z"/>
  <g>
    <path class="st0" d="M292,86.2c-9-5.5-19-8.2-29.9-8.2s-20.6,2.7-29.1,8.1c-4.7,3-8.9,6.7-12.4,11.1v-16.8h-26.3v167.1h26.3v-63.8c3.6,4.3,7.7,8,12.4,11.1,8.4,5.4,18.1,8.1,29.1,8.1s20.9-2.7,29.9-8.2c9-5.5,16.1-13,21.2-22.5,5.2-9.5,7.7-20.1,7.7-31.7s-2.6-22.1-7.7-31.7c-5.2-9.5-12.2-17-21.2-22.5ZM289.2,160c-3.2,5.9-7.6,10.5-13.1,13.8-5.6,3.4-11.8,5-18.7,5s-13.1-1.7-18.8-5c-5.6-3.4-10.1-8-13.3-13.8-3.2-5.9-4.8-12.4-4.8-19.6s1.6-13.7,4.8-19.6c3.2-5.9,7.6-10.5,13.1-13.8,5.6-3.4,11.8-5,18.7-5s13.1,1.7,18.8,5c5.6,3.4,10,8,13.3,13.8,3.2,5.9,4.8,12.4,4.8,19.6s-1.6,13.7-4.8,19.6Z"/>
    <path class="st0" d="M434.8,87.7c-10-6.4-21.4-9.6-34.3-9.6s-22.4,2.7-31.9,8.2c-9.5,5.5-17.1,13-22.5,22.5-5.5,9.5-8.2,20.1-8.2,31.7s2.8,22.1,8.4,31.7c5.6,9.5,13.3,17.1,23,22.5,9.7,5.5,20.5,8.2,32.4,8.2s24-3,33.9-9c9.9-6,17.6-14.1,22.9-24.3l-21.8-9.6c-3.3,6.3-7.9,11.2-14,14.9-6,3.7-12.8,5.5-20.3,5.5s-14.2-1.8-20.1-5.3c-5.9-3.5-10.5-8.3-13.8-14.3-2-3.5-3.4-7.3-4.2-11.4h97.9c1.7-13,0-24.9-4.9-35.8-5-10.9-12.5-19.5-22.5-25.9ZM381.7,105.8c5.6-3.5,11.9-5.3,18.8-5.3s13.1,1.6,18.5,4.8c5.5,3.2,9.8,7.6,12.9,13.3,1.8,3.2,3.1,6.7,4.1,10.3h-71.1c.8-3,1.9-5.9,3.4-8.7,3.3-6.1,7.7-10.9,13.4-14.4Z"/>
    <path class="st0" d="M576.6,84.6c-7.6-4.4-16.2-6.6-25.9-6.6s-18.1,2.3-25.6,6.9c-5.2,3.2-9.6,7.2-13.1,12v-16.5h-26.3v120.1h26.3v-67.8c0-5.8,1.3-11,4-15.7,2.7-4.7,6.4-8.4,11.1-11,4.8-2.7,10.1-4,16.1-4s11.3,1.3,16.1,4c4.8,2.7,8.5,6.3,11.1,11,2.7,4.7,4,9.9,4,15.7v67.8h26v-72c0-9.5-2.1-18.1-6.2-25.8-4.1-7.7-10-13.7-17.6-18.1Z"/>
    <path class="st0" d="M901.4,86.2c-9.7-5.5-20.5-8.2-32.4-8.2s-22.7,2.7-32.4,8.2c-9.7,5.5-17.4,13-23,22.5-5.6,9.5-8.4,20.1-8.4,31.7s2.8,22.1,8.4,31.7c5.6,9.5,13.3,17.1,23,22.5,9.7,5.5,20.5,8.2,32.4,8.2s22.7-2.7,32.4-8.2c9.7-5.5,17.4-13,23-22.5,5.6-9.5,8.4-20.1,8.4-31.7s-2.8-22.1-8.4-31.7c-5.6-9.5-13.3-17-23-22.5ZM901.1,160c-3.2,5.9-7.6,10.5-13.3,13.8-5.6,3.4-11.9,5-18.8,5s-13.1-1.7-18.8-5c-5.6-3.4-10.1-8-13.3-13.8-3.2-5.9-4.8-12.4-4.8-19.6s1.6-13.7,4.8-19.6c3.2-5.9,7.6-10.5,13.3-13.8,5.6-3.4,11.9-5,18.8-5s13.1,1.7,18.8,5c5.6,3.4,10,8,13.3,13.8,3.2,5.9,4.8,12.4,4.8,19.6s-1.6,13.7-4.8,19.6Z"/>
    <polygon class="st0" points="1034.7 80.4 998.5 174.7 962.4 80.4 934.3 80.4 983.1 200.5 1012.6 200.5 1061.2 80.4 1034.7 80.4"/>
    <path class="st0" d="M714,105.7l-14.6,25.3h63.4c-5.7,25.7-28.7,44.8-56.1,44.8s-57.5-25.7-57.5-57.5,25.7-57.5,57.5-57.5,39.8,11.6,49.8,28.7l24.6-14.2c-14.8-25.7-42.6-42.9-74.4-42.9-47.4,0-85.9,38.5-85.9,85.9s38.5,85.9,85.9,85.9,78.8-31.8,84.9-73.2c.6-4.1.9-8.4.9-12.7s-.3-8.5-.9-12.7h-77.6Z"/>
    <path class="st0" d="M85.9,32.5C38.5,32.5,0,71,0,118.4s38.5,85.9,85.9,85.9,85.9-38.4,85.9-85.9-38.4-85.9-85.9-85.9ZM85.9,175.9c-31.8,0-57.5-25.7-57.5-57.5s25.7-57.5,57.5-57.5,57.5,25.7,57.5,57.5-25.7,57.5-57.5,57.5Z"/>
  </g>
</svg>